<svg width="68" height="93" viewBox="0 0 68 93" fill="none" xmlns="http://www.w3.org/2000/svg">
<path d="M67.7105 88.4482C67.7105 90.9272 65.7041 92.942 63.225 92.942L5.22014 93.0083C3.24684 93.0083 1.57203 91.7398 0.966778 89.9737C0.809246 89.5177 0.726334 89.0368 0.726334 88.5311L0.635132 4.88167C0.635132 2.40261 2.64159 0.387862 5.12064 0.387862L58.383 0.329824L63.1255 0.321533C65.6046 0.321533 67.6193 2.32799 67.6193 4.80704L67.7105 88.4482Z" fill="url(#paint0_linear_0_1)"/>
<path d="M61.6995 87.9673L6.73743 88.0254C5.40255 88.0254 4.3247 86.9475 4.3247 85.6126L4.24179 7.76703C4.24179 6.43215 5.31964 5.3543 6.65452 5.3543L61.6083 5.29626C62.9431 5.29626 64.021 6.37411 64.021 7.70899L64.1039 85.5546C64.1122 86.8812 63.0343 87.9673 61.6995 87.9673Z" fill="white"/>
<path d="M53.9804 11.7136L13.8927 11.7633C12.5661 11.7633 11.4799 10.6855 11.4799 9.35889L11.4716 2.67623C11.4716 1.34964 12.5495 0.263502 13.8761 0.263502L53.9721 0.222046C55.2987 0.222046 56.3848 1.2999 56.3848 2.62648L56.3931 9.30914C56.3848 10.6357 55.307 11.7136 53.9804 11.7136ZM13.8761 1.49059C13.2294 1.49059 12.6987 2.02123 12.6987 2.66793L12.707 9.3506C12.707 9.99731 13.2377 10.5279 13.8844 10.5279L53.9804 10.4865C54.6271 10.4865 55.1577 9.95585 55.1577 9.30914L55.1494 2.62648C55.1494 1.97977 54.6188 1.44914 53.9721 1.44914L13.8761 1.49059Z" fill="url(#paint1_linear_0_1)"/>
<path d="M28.5763 79.2118L25.3428 59.6447L22.7228 68.1597L15.2276 68.168C14.7715 68.168 14.4067 67.8031 14.4067 67.3471C14.4067 66.8911 14.7715 66.5263 15.2276 66.5263L21.5205 66.518L25.8402 52.4977L29.0738 72.1145L33.2691 58.6414L35.4994 65.0256L40.5239 52.8459L45.4074 72.1643L47.248 66.0205L52.6372 66.0123C53.0932 66.0123 53.4581 66.3771 53.4581 66.8331C53.4581 67.2891 53.0932 67.6539 52.6372 67.6539L48.4668 67.6622L45.2747 78.3163L40.1508 58.0528L35.3668 69.6355L33.352 63.8731L28.5763 79.2118Z" fill="#58D6F4"/>
<path d="M17.7398 38.6598C22.7228 38.6515 24.2732 35.7745 24.2732 35.7745C24.0493 35.4926 23.7674 35.2439 23.386 34.9951C22.076 34.1411 21.0231 33.7763 20.5836 33.4115C20.1359 33.055 19.8872 32.5327 19.8872 32.5327L19.6136 32.6985C19.6136 32.6985 19.4477 32.1264 19.539 31.2558C19.539 31.2558 19.9286 31.1563 20.2188 29.838C20.6831 29.9292 21.2303 28.7519 20.9733 28.3207C20.8075 28.0388 20.6085 28.0637 20.4676 28.1301C20.6085 27.5414 21.2469 24.283 17.7315 24.283C14.216 24.283 14.8544 27.5414 15.0037 28.1301C14.8627 28.0637 14.6638 28.0388 14.4979 28.3207C14.2409 28.7519 14.7964 29.9292 15.2607 29.838C15.5509 31.1563 15.9489 31.2475 15.9489 31.2475C16.0484 32.1098 15.8743 32.6902 15.8743 32.6902L15.6007 32.5244C15.6007 32.5244 15.3519 33.0384 14.9042 33.4032C14.4565 33.768 13.4118 34.1411 12.1018 34.9951C11.7204 35.2439 11.4302 35.4926 11.2146 35.7745C11.2063 35.7911 12.7651 38.6681 17.7398 38.6598Z" fill="url(#paint2_linear_0_1)"/>
<path d="M50.5561 25.2779L30.2677 25.3028C29.8863 25.3028 29.5795 24.996 29.5795 24.6146V24.4986C29.5795 24.1172 29.8863 23.8104 30.2677 23.8104L50.5561 23.7855C50.9375 23.7855 51.2443 24.0923 51.2443 24.4737V24.5898C51.2443 24.9712 50.9292 25.2779 50.5561 25.2779Z" fill="url(#paint3_linear_0_1)"/>
<path d="M43.0941 29.1416L30.2677 29.1582C29.8863 29.1582 29.5795 28.8514 29.5795 28.47V28.3539C29.5795 27.9725 29.8863 27.6658 30.2677 27.6658L43.0941 27.6492C43.4755 27.6492 43.7823 27.9559 43.7823 28.3373V28.4534C43.7823 28.8348 43.4755 29.1416 43.0941 29.1416Z" fill="url(#paint4_linear_0_1)"/>
<path opacity="0.6" d="M57.5539 33.7348L30.276 33.768C29.8946 33.768 29.5878 33.4612 29.5878 33.0798V32.9638C29.5878 32.5824 29.8946 32.2756 30.276 32.2756L57.5539 32.2424C57.9353 32.2424 58.242 32.5492 58.242 32.9306V33.0467C58.2338 33.4281 57.927 33.7348 57.5539 33.7348Z" fill="url(#paint5_linear_0_1)"/>
<path opacity="0.6" d="M56.9652 46.6441L11.4634 46.6939C11.0737 46.6939 10.7503 46.3788 10.7503 45.9808V45.9145C10.7503 45.5248 11.0654 45.2015 11.4634 45.2015L56.9652 45.1517C57.3549 45.1517 57.6782 45.4668 57.6782 45.8648V45.9311C57.6782 46.3291 57.3549 46.6441 56.9652 46.6441Z" fill="url(#paint6_linear_0_1)"/>
<path opacity="0.6" d="M57.5539 38.2452L30.276 38.2784C29.8946 38.2784 29.5878 37.9716 29.5878 37.5902V37.4741C29.5878 37.0927 29.8946 36.786 30.276 36.786L57.5539 36.7528C57.9353 36.7528 58.242 37.0596 58.242 37.441V37.5571C58.242 37.9384 57.9353 38.2452 57.5539 38.2452Z" fill="url(#paint7_linear_0_1)"/>
<defs>
<linearGradient id="paint0_linear_0_1" x1="-8.65355" y1="32.748" x2="76.9992" y2="60.5782" gradientUnits="userSpaceOnUse">
<stop stop-color="#6CBCFC"/>
<stop offset="0.1713" stop-color="#5EABFC"/>
<stop offset="0.4084" stop-color="#509AFC"/>
<stop offset="0.6698" stop-color="#4890FC"/>
<stop offset="1" stop-color="#458DFC"/>
</linearGradient>
<linearGradient id="paint1_linear_0_1" x1="-4.58987" y1="-23.375" x2="56.3866" y2="5.98973" gradientUnits="userSpaceOnUse">
<stop stop-color="#CFE9FF"/>
<stop offset="1" stop-color="#A1D6FB"/>
</linearGradient>
<linearGradient id="paint2_linear_0_1" x1="13.7093" y1="28.0293" x2="23.4899" y2="40.6553" gradientUnits="userSpaceOnUse">
<stop stop-color="#B0F4FF"/>
<stop offset="0.0994384" stop-color="#A1EFFE"/>
<stop offset="0.2994" stop-color="#88E7FD"/>
<stop offset="0.5095" stop-color="#77E1FD"/>
<stop offset="0.7344" stop-color="#6CDDFC"/>
<stop offset="1" stop-color="#69DCFC"/>
</linearGradient>
<linearGradient id="paint3_linear_0_1" x1="29.5807" y1="24.551" x2="51.24" y2="24.564" gradientUnits="userSpaceOnUse">
<stop stop-color="#6CBCFC"/>
<stop offset="1" stop-color="#458DFC"/>
</linearGradient>
<linearGradient id="paint4_linear_0_1" x1="29.5847" y1="28.4037" x2="43.7814" y2="28.4037" gradientUnits="userSpaceOnUse">
<stop stop-color="#6CBCFC"/>
<stop offset="1" stop-color="#458DFC"/>
</linearGradient>
<linearGradient id="paint5_linear_0_1" x1="29.5894" y1="33.0098" x2="58.2374" y2="33.0098" gradientUnits="userSpaceOnUse">
<stop stop-color="#6CBCFC"/>
<stop offset="1" stop-color="#458DFC"/>
</linearGradient>
<linearGradient id="paint6_linear_0_1" x1="10.7499" y1="45.9272" x2="57.6759" y2="45.9272" gradientUnits="userSpaceOnUse">
<stop stop-color="#6CBCFC"/>
<stop offset="1" stop-color="#458DFC"/>
</linearGradient>
<linearGradient id="paint7_linear_0_1" x1="29.594" y1="37.5191" x2="58.242" y2="37.5191" gradientUnits="userSpaceOnUse">
<stop stop-color="#6CBCFC"/>
<stop offset="1" stop-color="#458DFC"/>
</linearGradient>
</defs>
</svg>
