<svg width="1600" height="488" viewBox="0 0 1600 488" fill="none" xmlns="http://www.w3.org/2000/svg">
<rect width="1600" height="487.557" fill="url(#paint0_linear_0_1)"/>
<path d="M16.5095 390.977C19.397 390.977 21.7378 388.343 21.7378 385.094C21.7378 381.845 19.397 379.211 16.5095 379.211C13.6219 379.211 11.2811 381.845 11.2811 385.094C11.2811 388.343 13.6219 390.977 16.5095 390.977Z" fill="url(#paint1_linear_0_1)"/>
<path d="M46.7905 390.977C49.6781 390.977 52.0189 388.343 52.0189 385.094C52.0189 381.845 49.6781 379.211 46.7905 379.211C43.903 379.211 41.5621 381.845 41.5621 385.094C41.5621 388.343 43.903 390.977 46.7905 390.977Z" fill="url(#paint2_linear_0_1)"/>
<path d="M77.0716 390.977C79.9592 390.977 82.3 388.343 82.3 385.094C82.3 381.845 79.9592 379.211 77.0716 379.211C74.184 379.211 71.8432 381.845 71.8432 385.094C71.8432 388.343 74.184 390.977 77.0716 390.977Z" fill="url(#paint3_linear_0_1)"/>
<path d="M107.353 390.977C110.24 390.977 112.581 388.343 112.581 385.094C112.581 381.845 110.24 379.211 107.353 379.211C104.465 379.211 102.124 381.845 102.124 385.094C102.124 388.343 104.465 390.977 107.353 390.977Z" fill="url(#paint4_linear_0_1)"/>
<path d="M16.5095 420.513C19.397 420.513 21.7378 417.879 21.7378 414.63C21.7378 411.381 19.397 408.747 16.5095 408.747C13.6219 408.747 11.2811 411.381 11.2811 414.63C11.2811 417.879 13.6219 420.513 16.5095 420.513Z" fill="url(#paint5_linear_0_1)"/>
<path d="M46.7905 420.513C49.6781 420.513 52.0189 417.879 52.0189 414.63C52.0189 411.381 49.6781 408.747 46.7905 408.747C43.903 408.747 41.5621 411.381 41.5621 414.63C41.5621 417.879 43.903 420.513 46.7905 420.513Z" fill="url(#paint6_linear_0_1)"/>
<path d="M77.0716 420.513C79.9592 420.513 82.3 417.879 82.3 414.63C82.3 411.381 79.9592 408.747 77.0716 408.747C74.184 408.747 71.8432 411.381 71.8432 414.63C71.8432 417.879 74.184 420.513 77.0716 420.513Z" fill="url(#paint7_linear_0_1)"/>
<path d="M107.353 420.513C110.24 420.513 112.581 417.879 112.581 414.63C112.581 411.381 110.24 408.747 107.353 408.747C104.465 408.747 102.124 411.381 102.124 414.63C102.124 417.879 104.465 420.513 107.353 420.513Z" fill="url(#paint8_linear_0_1)"/>
<path d="M16.5095 449.988C19.397 449.988 21.7378 447.354 21.7378 444.105C21.7378 440.856 19.397 438.223 16.5095 438.223C13.6219 438.223 11.2811 440.856 11.2811 444.105C11.2811 447.354 13.6219 449.988 16.5095 449.988Z" fill="url(#paint9_linear_0_1)"/>
<path d="M46.7905 449.988C49.6781 449.988 52.0189 447.354 52.0189 444.105C52.0189 440.856 49.6781 438.223 46.7905 438.223C43.903 438.223 41.5621 440.856 41.5621 444.105C41.5621 447.354 43.903 449.988 46.7905 449.988Z" fill="url(#paint10_linear_0_1)"/>
<path d="M77.0716 449.988C79.9592 449.988 82.3 447.354 82.3 444.105C82.3 440.856 79.9592 438.223 77.0716 438.223C74.184 438.223 71.8432 440.856 71.8432 444.105C71.8432 447.354 74.184 449.988 77.0716 449.988Z" fill="url(#paint11_linear_0_1)"/>
<path d="M107.353 449.988C110.24 449.988 112.581 447.354 112.581 444.105C112.581 440.856 110.24 438.223 107.353 438.223C104.465 438.223 102.124 440.856 102.124 444.105C102.124 447.354 104.465 449.988 107.353 449.988Z" fill="url(#paint12_linear_0_1)"/>
<path d="M16.5095 479.525C19.397 479.525 21.7378 476.891 21.7378 473.642C21.7378 470.393 19.397 467.759 16.5095 467.759C13.6219 467.759 11.2811 470.393 11.2811 473.642C11.2811 476.891 13.6219 479.525 16.5095 479.525Z" fill="url(#paint13_linear_0_1)"/>
<path d="M46.7905 479.525C49.6781 479.525 52.0189 476.891 52.0189 473.642C52.0189 470.393 49.6781 467.759 46.7905 467.759C43.903 467.759 41.5621 470.393 41.5621 473.642C41.5621 476.891 43.903 479.525 46.7905 479.525Z" fill="url(#paint14_linear_0_1)"/>
<path d="M77.0716 479.525C79.9592 479.525 82.3 476.891 82.3 473.642C82.3 470.393 79.9592 467.759 77.0716 467.759C74.184 467.759 71.8432 470.393 71.8432 473.642C71.8432 476.891 74.184 479.525 77.0716 479.525Z" fill="url(#paint15_linear_0_1)"/>
<path d="M107.353 479.525C110.24 479.525 112.581 476.891 112.581 473.642C112.581 470.393 110.24 467.759 107.353 467.759C104.465 467.759 102.124 470.393 102.124 473.642C102.124 476.891 104.465 479.525 107.353 479.525Z" fill="url(#paint16_linear_0_1)"/>
<defs>
<linearGradient id="paint0_linear_0_1" x1="1429" y1="-47.4013" x2="1420.41" y2="425.326" gradientUnits="userSpaceOnUse">
<stop stop-color="#67C3F3"/>
<stop offset="1" stop-color="#5A98F2"/>
</linearGradient>
<linearGradient id="paint1_linear_0_1" x1="66.2771" y1="527.209" x2="-21.4608" y2="329.266" gradientUnits="userSpaceOnUse">
<stop stop-color="white"/>
<stop offset="1" stop-color="white"/>
</linearGradient>
<linearGradient id="paint2_linear_0_1" x1="96.5582" y1="527.209" x2="8.8203" y2="329.266" gradientUnits="userSpaceOnUse">
<stop stop-color="white"/>
<stop offset="1" stop-color="white"/>
</linearGradient>
<linearGradient id="paint3_linear_0_1" x1="126.839" y1="527.209" x2="39.1014" y2="329.266" gradientUnits="userSpaceOnUse">
<stop stop-color="white"/>
<stop offset="1" stop-color="white"/>
</linearGradient>
<linearGradient id="paint4_linear_0_1" x1="157.12" y1="527.209" x2="69.3824" y2="329.266" gradientUnits="userSpaceOnUse">
<stop stop-color="white"/>
<stop offset="1" stop-color="white"/>
</linearGradient>
<linearGradient id="paint5_linear_0_1" x1="66.2771" y1="556.744" x2="-21.4593" y2="358.802" gradientUnits="userSpaceOnUse">
<stop stop-color="white"/>
<stop offset="1" stop-color="white"/>
</linearGradient>
<linearGradient id="paint6_linear_0_1" x1="96.5582" y1="556.744" x2="8.82175" y2="358.802" gradientUnits="userSpaceOnUse">
<stop stop-color="white"/>
<stop offset="1" stop-color="white"/>
</linearGradient>
<linearGradient id="paint7_linear_0_1" x1="126.839" y1="556.744" x2="39.1028" y2="358.802" gradientUnits="userSpaceOnUse">
<stop stop-color="white"/>
<stop offset="1" stop-color="white"/>
</linearGradient>
<linearGradient id="paint8_linear_0_1" x1="157.12" y1="556.744" x2="69.3839" y2="358.802" gradientUnits="userSpaceOnUse">
<stop stop-color="white"/>
<stop offset="1" stop-color="white"/>
</linearGradient>
<linearGradient id="paint9_linear_0_1" x1="66.2771" y1="586.221" x2="-21.4608" y2="388.277" gradientUnits="userSpaceOnUse">
<stop stop-color="white"/>
<stop offset="1" stop-color="white"/>
</linearGradient>
<linearGradient id="paint10_linear_0_1" x1="96.5582" y1="586.221" x2="8.8203" y2="388.277" gradientUnits="userSpaceOnUse">
<stop stop-color="white"/>
<stop offset="1" stop-color="white"/>
</linearGradient>
<linearGradient id="paint11_linear_0_1" x1="126.839" y1="586.221" x2="39.1014" y2="388.277" gradientUnits="userSpaceOnUse">
<stop stop-color="white"/>
<stop offset="1" stop-color="white"/>
</linearGradient>
<linearGradient id="paint12_linear_0_1" x1="157.12" y1="586.221" x2="69.3824" y2="388.277" gradientUnits="userSpaceOnUse">
<stop stop-color="white"/>
<stop offset="1" stop-color="white"/>
</linearGradient>
<linearGradient id="paint13_linear_0_1" x1="66.2771" y1="615.757" x2="-21.4608" y2="417.814" gradientUnits="userSpaceOnUse">
<stop stop-color="white"/>
<stop offset="1" stop-color="white"/>
</linearGradient>
<linearGradient id="paint14_linear_0_1" x1="96.5582" y1="615.757" x2="8.8203" y2="417.814" gradientUnits="userSpaceOnUse">
<stop stop-color="white"/>
<stop offset="1" stop-color="white"/>
</linearGradient>
<linearGradient id="paint15_linear_0_1" x1="126.839" y1="615.757" x2="39.1014" y2="417.814" gradientUnits="userSpaceOnUse">
<stop stop-color="white"/>
<stop offset="1" stop-color="white"/>
</linearGradient>
<linearGradient id="paint16_linear_0_1" x1="157.12" y1="615.757" x2="69.3824" y2="417.814" gradientUnits="userSpaceOnUse">
<stop stop-color="white"/>
<stop offset="1" stop-color="white"/>
</linearGradient>
</defs>
</svg>
